<?xml version="1.0" encoding="iso-8859-1"?>
<!-- Generator: Adobe Illustrator 16.0.0, SVG Export Plug-In . SVG Version: 6.00 Build 0)  -->
<!DOCTYPE svg PUBLIC "-//W3C//DTD SVG 1.1//EN" "http://www.w3.org/Graphics/SVG/1.1/DTD/svg11.dtd">
<svg version="1.1" id="Layer_1" xmlns="http://www.w3.org/2000/svg" xmlns:xlink="http://www.w3.org/1999/xlink" x="0px" y="0px"
	 width="45px" height="45px" viewBox="0 0 45 45" style="enable-background:new 0 0 45 45;" xml:space="preserve">
<g>
	<path style="fill:none;stroke:#000000;stroke-width:1.5;stroke-linecap:round;" d="M22.5,11.63V6"/>
	<path style="fill:none;stroke:#000000;stroke-width:1.5;stroke-linecap:round;" d="M20,8h5"/>
	<path style="fill:#FFFFFF;stroke:#000000;stroke-width:1.5;" d="M22.5,25c0,0,4.5-7.5,3-10.5c0,0-1-2.5-3-2.5s-3,2.5-3,2.5
		C18,17.5,22.5,25,22.5,25"/>
	<path style="fill:#FFFFFF;stroke:#000000;stroke-width:1.5;stroke-linecap:round;stroke-linejoin:round;" d="M11.5,37
		c5.5,3.5,15.5,3.5,21,0v-7c0,0,9-4.5,6-10.5c-4-6.5-13.5-3.5-16,4V27v-3.5c-3.5-7.5-13-10.5-16-4c-3,6,5,10,5,10V37z"/>
	<path style="fill:none;stroke:#000000;stroke-width:1.5;stroke-linecap:round;stroke-linejoin:round;" d="M11.5,30
		c5.5-3,15.5-3,21,0"/>
	<path style="fill:none;stroke:#000000;stroke-width:1.5;stroke-linecap:round;stroke-linejoin:round;" d="M11.5,33.5
		c5.5-3,15.5-3,21,0"/>
	<path style="fill:none;stroke:#000000;stroke-width:1.5;stroke-linecap:round;stroke-linejoin:round;" d="M11.5,37
		c5.5-3,15.5-3,21,0"/>
</g>
</svg>
