<?xml version="1.0" encoding="iso-8859-1"?>
<!-- Generator: Adobe Illustrator 16.0.0, SVG Export Plug-In . SVG Version: 6.00 Build 0)  -->
<!DOCTYPE svg PUBLIC "-//W3C//DTD SVG 1.1//EN" "http://www.w3.org/Graphics/SVG/1.1/DTD/svg11.dtd">
<svg version="1.1" id="Layer_1" xmlns="http://www.w3.org/2000/svg" xmlns:xlink="http://www.w3.org/1999/xlink" x="0px" y="0px"
	 width="45px" height="45px" viewBox="0 0 45 45" style="enable-background:new 0 0 45 45;" xml:space="preserve">
<g>
	<path style="fill:#FFFFFF;stroke:#000000;stroke-width:1.5;stroke-linecap:round;stroke-linejoin:round;" d="M8,12
		c0,1.104-0.896,2-2,2s-2-0.896-2-2s0.896-2,2-2S8,10.896,8,12z"/>
	<path style="fill:#FFFFFF;stroke:#000000;stroke-width:1.5;stroke-linecap:round;stroke-linejoin:round;" d="M24.5,7.5
		c0,1.104-0.896,2-2,2s-2-0.896-2-2s0.896-2,2-2S24.5,6.396,24.5,7.5z"/>
	<path style="fill:#FFFFFF;stroke:#000000;stroke-width:1.5;stroke-linecap:round;stroke-linejoin:round;" d="M41,12
		c0,1.104-0.896,2-2,2s-2-0.896-2-2s0.896-2,2-2S41,10.896,41,12z"/>
	<path style="fill:#FFFFFF;stroke:#000000;stroke-width:1.5;stroke-linecap:round;stroke-linejoin:round;" d="M16,8.5
		c0,1.104-0.896,2-2,2s-2-0.896-2-2s0.896-2,2-2S16,7.396,16,8.5z"/>
	<path style="fill:#FFFFFF;stroke:#000000;stroke-width:1.5;stroke-linecap:round;stroke-linejoin:round;" d="M33,9
		c0,1.104-0.896,2-2,2s-2-0.896-2-2s0.896-2,2-2S33,7.896,33,9z"/>
	<path style="fill:#FFFFFF;stroke:#000000;stroke-width:1.5;stroke-linejoin:round;" d="M9,26c8.5-1.5,21-1.5,27,0l2-12l-7,11V11
		l-5.5,13.5l-3-15l-3,15l-5.5-14V25L7,14L9,26z"/>
	<path style="fill:#FFFFFF;stroke:#000000;stroke-width:1.5;stroke-linejoin:round;" d="M9,26c0,2,1.5,2,2.5,4c1,1.5,1,1,0.5,3.5
		c-1.5,1-1.5,2.5-1.5,2.5C9,37.5,11,38.5,11,38.5c6.5,1,16.5,1,23,0c0,0,1.5-1,0-2.5c0,0,0.5-1.5-1-2.5c-0.5-2.5-0.5-2,0.5-3.5
		c1-2,2.5-2,2.5-4C27.5,24.5,17.5,24.5,9,26z"/>
	<path style="fill:none;stroke:#000000;stroke-width:1.5;stroke-linecap:round;stroke-linejoin:round;" d="M11.5,30
		c3.5-1,18.5-1,22,0"/>
	<path style="fill:none;stroke:#000000;stroke-width:1.5;stroke-linecap:round;stroke-linejoin:round;" d="M12,33.5c6-1,15-1,21,0"
		/>
</g>
</svg>
