<?xml version="1.0" encoding="iso-8859-1"?>
<!-- Generator: Adobe Illustrator 16.0.0, SVG Export Plug-In . SVG Version: 6.00 Build 0)  -->
<!DOCTYPE svg PUBLIC "-//W3C//DTD SVG 1.1//EN" "http://www.w3.org/Graphics/SVG/1.1/DTD/svg11.dtd">
<svg version="1.1" id="Layer_1" xmlns="http://www.w3.org/2000/svg" xmlns:xlink="http://www.w3.org/1999/xlink" x="0px" y="0px"
	 width="45px" height="45px" viewBox="0 0 45 45" style="enable-background:new 0 0 45 45;" xml:space="preserve">
<g>
	<g>
		<path style="fill:#FFFFFF;stroke:#000000;stroke-width:1.5;stroke-linejoin:round;" d="M9,36c3.39-0.97,10.11,0.43,13.5-2
			c3.391,2.43,10.109,1.03,13.5,2c0,0,1.65,0.54,3,2c-0.68,0.97-1.65,0.99-3,0.5c-3.391-0.97-10.109,0.46-13.5-1
			c-3.39,1.46-10.11,0.03-13.5,1c-1.354,0.49-2.323,0.47-3-0.5C7.354,36.061,9,36,9,36z"/>
		<path style="fill:#FFFFFF;stroke:#000000;stroke-width:1.5;stroke-linejoin:round;" d="M15,32c2.5,2.5,12.5,2.5,15,0
			c0.5-1.5,0-2,0-2c0-2.5-2.5-4-2.5-4c5.5-1.5,6-11.5-5-15.5c-11,4-10.5,14-5,15.5c0,0-2.5,1.5-2.5,4C15,30,14.5,30.5,15,32z"/>
		<path style="fill:#FFFFFF;stroke:#000000;stroke-width:1.5;stroke-linejoin:round;" d="M25,8c0,1.381-1.119,2.5-2.5,2.5
			S20,9.381,20,8s1.119-2.5,2.5-2.5S25,6.619,25,8z"/>
	</g>
	<path style="fill:none;stroke:#000000;stroke-width:1.5;stroke-linecap:round;" d="M17.5,26h10 M15,30h15 M22.5,15.5v5 M20,18h5"/>
</g>
</svg>
