<?xml version="1.0" encoding="iso-8859-1"?>
<!-- Generator: Adobe Illustrator 16.0.0, SVG Export Plug-In . SVG Version: 6.00 Build 0)  -->
<!DOCTYPE svg PUBLIC "-//W3C//DTD SVG 1.1//EN" "http://www.w3.org/Graphics/SVG/1.1/DTD/svg11.dtd">
<svg version="1.1" id="Layer_1" xmlns="http://www.w3.org/2000/svg" xmlns:xlink="http://www.w3.org/1999/xlink" x="0px" y="0px"
	 width="45px" height="45px" viewBox="0 0 45 45" style="enable-background:new 0 0 45 45;" xml:space="preserve">
<g>
	<path style="fill:#FFFFFF;stroke:#000000;stroke-width:1.5;stroke-linecap:round;stroke-linejoin:round;" d="M22,10
		c10.5,1,16.5,8,16,29H15c0-9,10-6.5,8-21"/>
	<path style="fill:#FFFFFF;stroke:#000000;stroke-width:1.5;stroke-linecap:round;stroke-linejoin:round;" d="M24,18
		c0.38,2.91-5.55,7.37-8,9c-3,2-2.82,4.34-5,4c-1.042-0.939,1.41-3.04,0-3c-1,0,0.19,1.23-1,2c-1,0-4.003,1-4-4c0-2,6-12,6-12
		s1.89-1.9,2-3.5c-0.73-0.994-0.5-2-0.5-3c1-1,3,2.5,3,2.5h2c0,0,0.78-1.992,2.5-3c1,0,1,3,1,3"/>
	<path style="stroke:#000000;stroke-width:1.5;stroke-linecap:round;stroke-linejoin:round;" d="M9.5,25.5C9.5,25.776,9.276,26,9,26
		s-0.5-0.224-0.5-0.5S8.724,25,9,25S9.5,25.224,9.5,25.5z"/>
	<path style="stroke:#000000;stroke-width:1.5;stroke-linecap:round;stroke-linejoin:round;" d="M14.933,15.75
		c-0.415,0.717-0.944,1.187-1.183,1.049c-0.239-0.138-0.097-0.832,0.317-1.549c0.415-0.717,0.944-1.187,1.183-1.049
		C15.489,14.339,15.347,15.033,14.933,15.75z"/>
</g>
</svg>
