<?xml version="1.0" encoding="iso-8859-1"?>
<!-- Generator: Adobe Illustrator 16.0.0, SVG Export Plug-In . SVG Version: 6.00 Build 0)  -->
<!DOCTYPE svg PUBLIC "-//W3C//DTD SVG 1.1//EN" "http://www.w3.org/Graphics/SVG/1.1/DTD/svg11.dtd">
<svg version="1.1" id="Layer_1" xmlns="http://www.w3.org/2000/svg" xmlns:xlink="http://www.w3.org/1999/xlink" x="0px" y="0px"
	 width="45px" height="45px" viewBox="0 0 45 45" style="enable-background:new 0 0 45 45;" xml:space="preserve">
<g>
	<g>
		<circle cx="6" cy="12" r="2.75"/>
		<circle cx="14" cy="9" r="2.75"/>
		<circle cx="22.5" cy="8" r="2.75"/>
		<circle cx="31" cy="9" r="2.75"/>
		<circle cx="39" cy="12" r="2.75"/>
	</g>
	<path style="stroke:#000000;stroke-width:1.5;stroke-linejoin:round;" d="M9,26c8.5-1.5,21-1.5,27,0l2.5-12.5L31,25l-0.3-14.1
		l-5.2,13.6l-3-14.5l-3,14.5l-5.2-13.6L14,25L6.5,13.5L9,26z"/>
	<path style="stroke:#000000;stroke-width:1.5;stroke-linejoin:round;" d="M9,26c0,2,1.5,2,2.5,4c1,1.5,1,1,0.5,3.5
		c-1.5,1-1.5,2.5-1.5,2.5C9,37.5,11,38.5,11,38.5c6.5,1,16.5,1,23,0c0,0,1.5-1,0-2.5c0,0,0.5-1.5-1-2.5c-0.5-2.5-0.5-2,0.5-3.5
		c1-2,2.5-2,2.5-4C27.5,24.5,17.5,24.5,9,26z"/>
	<path style="fill:none;stroke:#000000;stroke-width:1.5;stroke-linejoin:round;" d="M11,38.5c7.448,2.591,15.553,2.591,23,0"/>
	<path style="fill:none;stroke:#FFFFFF;stroke-width:1.5;stroke-linecap:round;stroke-linejoin:round;" d="M11,29
		c7.448-2.591,15.553-2.591,23,0"/>
	<path style="fill:none;stroke:#FFFFFF;stroke-width:1.5;stroke-linecap:round;stroke-linejoin:round;" d="M12.5,31.5h20"/>
	<path style="fill:none;stroke:#FFFFFF;stroke-width:1.5;stroke-linecap:round;stroke-linejoin:round;" d="M11.5,34.5
		c7.143,2.365,14.857,2.365,22,0"/>
	<path style="fill:none;stroke:#FFFFFF;stroke-width:1.5;stroke-linecap:round;stroke-linejoin:round;" d="M10.5,37.5
		c7.75,2.828,16.25,2.828,24,0"/>
</g>
</svg>
