<?xml version="1.0" encoding="iso-8859-1"?>
<!-- Generator: Adobe Illustrator 16.0.0, SVG Export Plug-In . SVG Version: 6.00 Build 0)  -->
<!DOCTYPE svg PUBLIC "-//W3C//DTD SVG 1.1//EN" "http://www.w3.org/Graphics/SVG/1.1/DTD/svg11.dtd">
<svg version="1.1" id="Layer_1" xmlns="http://www.w3.org/2000/svg" xmlns:xlink="http://www.w3.org/1999/xlink" x="0px" y="0px"
	 width="45px" height="45px" viewBox="0 0 45 45" style="enable-background:new 0 0 45 45;" xml:space="preserve">
<g>
	<path style="stroke:#000000;stroke-width:1.5;stroke-linejoin:round;" d="M9,39h27v-3H9V39z"/>
	<path style="stroke:#000000;stroke-width:1.5;stroke-linejoin:round;" d="M12.5,32l1.5-2.5h17l1.5,2.5H12.5z"/>
	<path style="stroke:#000000;stroke-width:1.5;stroke-linejoin:round;" d="M12,36v-4h21v4H12z"/>
	<path style="stroke:#000000;stroke-width:1.5;" d="M14,29.5v-13h17v13H14z"/>
	<path style="stroke:#000000;stroke-width:1.5;stroke-linejoin:round;" d="M14,16.5L11,14h23l-3,2.5H14z"/>
	<path style="stroke:#000000;stroke-width:1.5;stroke-linejoin:round;" d="M11,14V9h4v2h5V9h5v2h5V9h4v5H11z"/>
	<path style="fill:none;stroke:#FFFFFF;stroke-linecap:round;" d="M12,35.5h21l0,0"/>
	<path style="fill:none;stroke:#FFFFFF;stroke-linecap:round;" d="M13,31.5h19"/>
	<path style="fill:none;stroke:#FFFFFF;stroke-linecap:round;" d="M14,29.5h17"/>
	<path style="fill:none;stroke:#FFFFFF;stroke-linecap:round;" d="M14,16.5h17"/>
	<path style="fill:none;stroke:#FFFFFF;stroke-linecap:round;" d="M11,14h23"/>
</g>
</svg>
