<?xml version="1.0" encoding="iso-8859-1"?>
<!-- Generator: Adobe Illustrator 16.0.0, SVG Export Plug-In . SVG Version: 6.00 Build 0)  -->
<!DOCTYPE svg PUBLIC "-//W3C//DTD SVG 1.1//EN" "http://www.w3.org/Graphics/SVG/1.1/DTD/svg11.dtd">
<svg version="1.1" id="Layer_1" xmlns="http://www.w3.org/2000/svg" xmlns:xlink="http://www.w3.org/1999/xlink" x="0px" y="0px"
	 width="45px" height="45px" viewBox="0 0 45 45" style="enable-background:new 0 0 45 45;" xml:space="preserve">
<path style="stroke:#000000;stroke-width:1.5;stroke-linecap:round;" d="M22,9c-2.21,0-4,1.79-4,4c0,0.89,0.29,1.71,0.78,2.38
	C16.83,16.5,15.5,18.59,15.5,21c0,2.03,0.94,3.84,2.41,5.03c-3,1.06-7.41,5.55-7.41,13.47h23c0-7.92-4.41-12.41-7.41-13.47
	c1.471-1.19,2.41-3,2.41-5.03c0-2.41-1.33-4.5-3.279-5.62C25.71,14.71,26,13.89,26,13C26,10.79,24.21,9,22,9z"/>
</svg>
